<svg
                viewBox="0 0 29 20"
                fill="none"
                xmlns="http://www.w3.org/2000/svg"
                class="svg"
              >
                <path
                  id="Accounts"
                  d="M20.7383 10C19.7539 10 18.915 9.65324 18.2215 8.95973C17.528 8.26622 17.1812 7.42729 17.1812 6.44295C17.1812 5.45861 17.528 4.6085 18.2215 3.89262C18.915 3.17673 19.7539 2.81879 20.7383 2.81879C21.7226 2.81879 22.5615 3.17673 23.255 3.89262C23.9485 4.6085 24.2953 5.45861 24.2953 6.44295C24.2953 7.42729 23.9485 8.26622 23.255 8.95973C22.5615 9.65324 21.7226 10 20.7383 10ZM10.0336 8.5906C8.84787 8.5906 7.82998 8.16555 6.97987 7.31544C6.12975 6.46532 5.7047 5.44743 5.7047 4.26174C5.7047 3.07606 6.12975 2.06935 6.97987 1.24161C7.82998 0.41387 8.84787 0 10.0336 0C11.2192 0 12.226 0.41387 13.0537 1.24161C13.8814 2.06935 14.2953 3.07606 14.2953 4.26174C14.2953 5.44743 13.8814 6.46532 13.0537 7.31544C12.226 8.16555 11.2192 8.5906 10.0336 8.5906ZM20.7718 12.8859C22.4049 12.8859 24.1275 13.2438 25.9396 13.9597C27.7517 14.6756 28.6577 15.6152 28.6577 16.7785V20H12.8859V16.7785C12.8859 15.6152 13.7919 14.6756 15.604 13.9597C17.4161 13.2438 19.1387 12.8859 20.7718 12.8859ZM10 11.4094C10.9843 11.4094 12.1253 11.5436 13.4228 11.8121C11.1409 13.0649 10 14.7204 10 16.7785V20H0V16.443C0 15.4139 0.615212 14.4966 1.84564 13.6913C3.07606 12.8859 4.44072 12.3042 5.9396 11.9463C7.43848 11.5884 8.79195 11.4094 10 11.4094Z"
                  fill="#ffffff"
                />
              </svg>
