<svg
		viewBox="0 0 24 20"
		fill="none"
		xmlns="http://www.w3.org/2000/svg"
>
	<path
		id="Buildings"
		d="M21.8182 17.7778H24V20H0V17.7778H2.18182V1.11111C2.18182 0.816426 2.29675 0.533811 2.50134 0.325437C2.70592 0.117063 2.9834 0 3.27273 0H14.1818C14.4711 0 14.7486 0.117063 14.9532 0.325437C15.1578 0.533811 15.2727 0.816426 15.2727 1.11111V17.7778H17.4545V6.66667H20.7273C21.0166 6.66667 21.2941 6.78373 21.4987 6.9921C21.7032 7.20048 21.8182 7.48309 21.8182 7.77778V17.7778ZM6.54545 8.88889V11.1111H10.9091V8.88889H6.54545ZM6.54545 4.44444V6.66667H10.9091V4.44444H6.54545Z"
		fill="#ffffff"
	/>
</svg>
