<svg width="9" height="11" viewBox="0 0 9 11" fill="none" xmlns="http://www.w3.org/2000/svg">
<path d="M8.67839 10.9377C8.58133 10.984 8.47235 11.0051 8.36315 10.9989C8.25395 10.9927 8.14866 10.9594 8.05857 10.9025L0.258315 5.95223C0.17861 5.90161 0.113475 5.83403 0.0684872 5.75529C0.0234995 5.67655 0 5.58899 0 5.5001C0 5.41122 0.0234995 5.32365 0.0684872 5.24491C0.113475 5.16617 0.17861 5.0986 0.258315 5.04798L8.05857 0.0977197C8.14859 0.0406226 8.25393 0.00718764 8.36319 0.00103502C8.47245 -0.00511759 8.58147 0.0162466 8.67843 0.0628144C8.7754 0.109382 8.85662 0.179379 8.9133 0.265225C8.96998 0.351072 8.99996 0.449497 9 0.549843V10.4504C9.00002 10.5508 8.97006 10.6493 8.91336 10.7352C8.85667 10.8211 8.77541 10.8911 8.67839 10.9377Z" fill="url(#paint0_linear)"/>
<defs>
<linearGradient id="paint0_linear" x1="4.5" y1="0" x2="4.5" y2="11" gradientUnits="userSpaceOnUse">
<stop stop-color="#F6FAFD"/>
<stop offset="1" stop-color="#DCEDF5"/>
</linearGradient>
</defs>
</svg>
