<svg width="9" height="11" viewBox="0 0 9 11" fill="none" xmlns="http://www.w3.org/2000/svg">
<path d="M0.32161 10.9377C0.418673 10.984 0.527652 11.0051 0.63685 10.9989C0.746048 10.9927 0.851342 10.9594 0.94143 10.9025L8.74168 5.95223C8.82139 5.90161 8.88653 5.83403 8.93151 5.75529C8.9765 5.67655 9 5.58899 9 5.5001C9 5.41122 8.9765 5.32365 8.93151 5.24491C8.88653 5.16617 8.82139 5.0986 8.74168 5.04798L0.94143 0.0977197C0.851412 0.0406226 0.746069 0.00718764 0.636809 0.00103502C0.527548 -0.00511759 0.418534 0.0162466 0.321568 0.0628144C0.224603 0.109382 0.143382 0.179379 0.086701 0.265225C0.0300195 0.351072 3.69512e-05 0.449497 8.15013e-09 0.549843V10.4504C-1.8041e-05 10.5508 0.0299428 10.6493 0.0866352 10.7352C0.143328 10.8211 0.224589 10.8911 0.32161 10.9377Z" fill="url(#paint0_linear)"/>
<defs>
<linearGradient id="paint0_linear" x1="4.5" y1="0" x2="4.5" y2="11" gradientUnits="userSpaceOnUse">
<stop stop-color="#F6FAFD"/>
<stop offset="1" stop-color="#DCEDF5"/>
</linearGradient>
</defs>
</svg>
