<svg width="21" height="23" viewBox="0 0 21 23" fill="none" xmlns="http://www.w3.org/2000/svg">
<path d="M21 20.7V4.6C21 3.33155 19.9535 2.3 18.6667 2.3H17.3333C16.781 2.3 16.3333 1.85228 16.3333 1.3V1C16.3333 0.447715 15.8856 0 15.3333 0H15C14.4477 0 14 0.447715 14 1V1.3C14 1.85228 13.5523 2.3 13 2.3H8C7.44771 2.3 7 1.85228 7 1.3V1C7 0.447715 6.55228 0 6 0H5.66667C5.11438 0 4.66667 0.447715 4.66667 1V1.3C4.66667 1.85228 4.21895 2.3 3.66667 2.3H2.33333C1.0465 2.3 0 3.33155 0 4.6V20.7C0 21.9685 1.0465 23 2.33333 23H18.6667C19.9535 23 21 21.9685 21 20.7ZM7 17.4C7 17.9523 6.55228 18.4 6 18.4H5.66667C5.11438 18.4 4.66667 17.9523 4.66667 17.4V17.1C4.66667 16.5477 5.11438 16.1 5.66667 16.1H6C6.55228 16.1 7 16.5477 7 17.1V17.4ZM7 12.8C7 13.3523 6.55228 13.8 6 13.8H5.66667C5.11438 13.8 4.66667 13.3523 4.66667 12.8V12.5C4.66667 11.9477 5.11438 11.5 5.66667 11.5H6C6.55228 11.5 7 11.9477 7 12.5V12.8ZM11.6667 17.4C11.6667 17.9523 11.219 18.4 10.6667 18.4H10.3333C9.78105 18.4 9.33333 17.9523 9.33333 17.4V17.1C9.33333 16.5477 9.78105 16.1 10.3333 16.1H10.6667C11.219 16.1 11.6667 16.5477 11.6667 17.1V17.4ZM11.6667 12.8C11.6667 13.3523 11.219 13.8 10.6667 13.8H10.3333C9.78105 13.8 9.33333 13.3523 9.33333 12.8V12.5C9.33333 11.9477 9.78105 11.5 10.3333 11.5H10.6667C11.219 11.5 11.6667 11.9477 11.6667 12.5V12.8ZM16.3333 17.4C16.3333 17.9523 15.8856 18.4 15.3333 18.4H15C14.4477 18.4 14 17.9523 14 17.4V17.1C14 16.5477 14.4477 16.1 15 16.1H15.3333C15.8856 16.1 16.3333 16.5477 16.3333 17.1V17.4ZM16.3333 12.8C16.3333 13.3523 15.8856 13.8 15.3333 13.8H15C14.4477 13.8 14 13.3523 14 12.8V12.5C14 11.9477 14.4477 11.5 15 11.5H15.3333C15.8856 11.5 16.3333 11.9477 16.3333 12.5V12.8ZM18.6667 7.05C18.6667 7.60228 18.219 8.05 17.6667 8.05H3.33333C2.78105 8.05 2.33333 7.60228 2.33333 7.05V6.75C2.33333 6.19771 2.78105 5.75 3.33333 5.75H17.6667C18.219 5.75 18.6667 6.19772 18.6667 6.75V7.05Z" fill="url(#paint0_linear)"/>
<defs>
<linearGradient id="paint0_linear" x1="0" y1="0" x2="24.7248" y2="17.8369" gradientUnits="userSpaceOnUse">
<stop stop-color="#5EC5FF"/>
<stop offset="1" stop-color="#285AD8"/>
</linearGradient>
</defs>
</svg>
