            <svg
              width="20"
              height="20"
              viewBox="0 0 20 20"
              fill="none"
              xmlns="http://www.w3.org/2000/svg"
            >
              <path
                d="M15.805 0.723063L9.99997 6.52844C8.06505 4.59415 6.12951 2.65798 4.19428 0.723063C1.95555 -1.51566 -1.51463 1.95577 0.722225 4.19511C2.65777 6.12878 4.59394 8.06526 6.5273 10.0002C4.59305 11.936 2.65803 13.871 0.722225 15.8053C-1.51463 18.0434 1.95586 21.5138 4.19428 19.2773C6.1292 17.3418 8.06474 15.4059 9.99966 13.4716L15.8047 19.2773C18.0435 21.5154 21.5146 18.0437 19.2768 15.8053C17.3412 13.8697 15.4063 11.9348 13.4701 9.99956C15.406 8.06401 17.3409 6.12847 19.2768 4.19324C21.5149 1.95577 18.0438 -1.51566 15.8047 0.724312"
                fill="#777777"
              />
            </svg>