<svg width="20" height="20" viewBox="0 0 20 20" fill="none" xmlns="http://www.w3.org/2000/svg">
<path id="Dashboard" d="M0 10.1111C0 10.6634 0.447715 11.1111 1 11.1111H7.88889C8.44117 11.1111 8.88889 10.6634 8.88889 10.1111V1C8.88889 0.447715 8.44117 0 7.88889 0H1C0.447716 0 0 0.447715 0 1V10.1111ZM0 19C0 19.5523 0.447715 20 1 20H7.88889C8.44117 20 8.88889 19.5523 8.88889 19V14.3333C8.88889 13.781 8.44117 13.3333 7.88889 13.3333H1C0.447716 13.3333 0 13.781 0 14.3333V19ZM11.1111 19C11.1111 19.5523 11.5588 20 12.1111 20H19C19.5523 20 20 19.5523 20 19V9.88889C20 9.3366 19.5523 8.88889 19 8.88889H12.1111C11.5588 8.88889 11.1111 9.3366 11.1111 9.88889V19ZM12.1111 0C11.5588 0 11.1111 0.447715 11.1111 1V5.66667C11.1111 6.21895 11.5588 6.66667 12.1111 6.66667H19C19.5523 6.66667 20 6.21895 20 5.66667V0.999999C20 0.447714 19.5523 0 19 0H12.1111Z" fill="white"/>
</svg>
