<svg width="10" height="9" viewBox="0 0 10 9" fill="none" xmlns="http://www.w3.org/2000/svg">
<path d="M8.9525 8.145H0.6725C0.473375 8.145 0.3125 8.30587 0.3125 8.505V8.91C0.3125 8.9595 0.353 9 0.4025 9H9.2225C9.272 9 9.3125 8.9595 9.3125 8.91V8.505C9.3125 8.30587 9.15162 8.145 8.9525 8.145ZM1.95163 7.2C1.97413 7.2 1.99663 7.19775 2.01913 7.19437L3.91137 6.8625C3.93387 6.858 3.95525 6.84787 3.971 6.831L8.73987 2.06212C8.7503 2.05172 8.75858 2.03935 8.76422 2.02575C8.76987 2.01214 8.77277 1.99755 8.77277 1.98281C8.77277 1.96808 8.76987 1.95349 8.76422 1.93988C8.75858 1.92627 8.7503 1.91391 8.73987 1.9035L6.87012 0.032625C6.84875 0.01125 6.82062 0 6.79025 0C6.75987 0 6.73175 0.01125 6.71037 0.032625L1.9415 4.8015C1.92462 4.81837 1.9145 4.83862 1.91 4.86112L1.57812 6.75337C1.56718 6.81364 1.57109 6.87567 1.58952 6.93408C1.60794 6.9925 1.64033 7.04554 1.68387 7.08862C1.75812 7.16062 1.8515 7.2 1.95163 7.2Z" fill="#F3F4F7"/>
</svg>
