<svg  viewBox="0 0 25 20" fill="none" xmlns="http://www.w3.org/2000/svg">
<path id="Flats" d="M24.375 17.5H21.25V4.43161C21.25 3.36677 20.409 2.49997 19.375 2.49997H15V4.99997H18.75V20H24.375C24.7204 20 25 19.7203 25 19.375V18.125C25 17.7797 24.7204 17.5 24.375 17.5ZM12.1969 0.0394151L4.69688 1.98239C4.14024 2.12653 3.75001 2.6445 3.75001 3.23903V17.5H0.625001C0.279688 17.5 0 17.7797 0 18.125V19.375C0 19.7203 0.279688 20 0.625001 20H13.75V1.29606C13.75 0.453088 12.986 -0.165273 12.1969 0.0394151V0.0394151ZM10.3125 11.25C9.79494 11.25 9.37502 10.6902 9.37502 9.99998C9.37502 9.30975 9.79494 8.74998 10.3125 8.74998C10.8301 8.74998 11.25 9.30975 11.25 9.99998C11.25 10.6902 10.8301 11.25 10.3125 11.25Z" fill="#565656"/>
</svg>
