<svg
            width="36"
            height="32"
            viewBox="0 0 36 32"
            fill="none"
            xmlns="http://www.w3.org/2000/svg"
          >
            <path
              id="Vector"
              d="M18 28.7564H21.2727V7.67288L31.7356 12.1166C32.0302 12.2418 32.2812 12.4499 32.4575 12.7151C32.6337 12.9804 32.7276 13.2911 32.7273 13.6087V28.7564H36V32H0V28.7564H3.27273V7.10525C3.27269 6.79145 3.3645 6.48439 3.53702 6.22128C3.70955 5.95817 3.95539 5.75031 4.24473 5.62291L16.8496 0.0698417C16.9743 0.0149334 17.1109 -0.00819123 17.2469 0.00257267C17.383 0.0133366 17.5141 0.0576471 17.6284 0.131471C17.7428 0.205295 17.8367 0.306287 17.9016 0.425255C17.9664 0.544224 18.0003 0.677389 18 0.81263V28.7564Z"
              fill="#fff"
            />
          </svg>
          