<svg width="78" height="78" viewBox="0 0 78 78" fill="none" xmlns="http://www.w3.org/2000/svg">
<path d="M65.8125 48.75H60.9375C60.291 48.75 59.671 49.0068 59.2139 49.4639C58.7568 49.921 58.5 50.541 58.5 51.1875V68.25H9.75V19.5H31.6875C32.334 19.5 32.954 19.2432 33.4111 18.7861C33.8682 18.329 34.125 17.709 34.125 17.0625V12.1875C34.125 11.541 33.8682 10.921 33.4111 10.4639C32.954 10.0068 32.334 9.75 31.6875 9.75H7.3125C5.3731 9.75 3.51314 10.5204 2.14178 11.8918C0.770422 13.2631 0 15.1231 0 17.0625L0 70.6875C0 72.6269 0.770422 74.4869 2.14178 75.8582C3.51314 77.2296 5.3731 78 7.3125 78H60.9375C62.8769 78 64.7369 77.2296 66.1082 75.8582C67.4796 74.4869 68.25 72.6269 68.25 70.6875V51.1875C68.25 50.541 67.9932 49.921 67.5361 49.4639C67.079 49.0068 66.459 48.75 65.8125 48.75ZM74.3438 0H54.8438C51.5882 0 49.9611 3.94723 52.2539 6.24609L57.6972 11.6893L20.5664 48.8064C20.2255 49.146 19.9551 49.5497 19.7706 49.9941C19.586 50.4385 19.491 50.915 19.491 51.3962C19.491 51.8774 19.586 52.3539 19.7706 52.7983C19.9551 53.2428 20.2255 53.6464 20.5664 53.9861L24.02 57.4336C24.3597 57.7745 24.7633 58.0449 25.2078 58.2294C25.6522 58.414 26.1287 58.509 26.6099 58.509C27.0911 58.509 27.5676 58.414 28.012 58.2294C28.4564 58.0449 28.86 57.7745 29.1997 57.4336L66.3122 20.3105L71.7539 25.7461C74.0391 28.0312 78 26.4316 78 23.1562V3.65625C78 2.68655 77.6148 1.75657 76.9291 1.07089C76.2434 0.385211 75.3134 0 74.3438 0V0Z" fill="white"/>
</svg>
