<svg width="120" height="92" viewBox="0 0 120 92" fill="none" xmlns="http://www.w3.org/2000/svg">
<path d="M109.453 0.296875H38.6719C32.8547 0.296875 28.125 5.02891 28.125 10.8438C28.125 16.6609 32.8547 21.3906 38.6719 21.3906H109.453C115.268 21.3906 120 16.6609 120 10.8438C120 5.02891 115.268 0.296875 109.453 0.296875Z" fill="black"/>
<path d="M109.453 35.4531H38.6719C32.8547 35.4531 28.125 40.1852 28.125 46C28.125 51.8172 32.8547 56.5469 38.6719 56.5469H109.453C115.268 56.5469 120 51.8172 120 46C120 40.1852 115.268 35.4531 109.453 35.4531Z" fill="black"/>
<path d="M109.453 70.6094H38.6719C32.8547 70.6094 28.125 75.3414 28.125 81.1562C28.125 86.9734 32.8547 91.7031 38.6719 91.7031H109.453C115.268 91.7031 120 86.9734 120 81.1562C120 75.3414 115.268 70.6094 109.453 70.6094Z" fill="black"/>
<path d="M10.5469 0.296875C4.72969 0.296875 0 5.02891 0 10.8438C0 16.6609 4.72969 21.3906 10.5469 21.3906C16.3617 21.3906 21.0938 16.6609 21.0938 10.8438C21.0938 5.02891 16.3617 0.296875 10.5469 0.296875Z" fill="black"/>
<path d="M10.5469 35.4531C4.72969 35.4531 0 40.1852 0 46C0 51.8172 4.72969 56.5469 10.5469 56.5469C16.3617 56.5469 21.0938 51.8172 21.0938 46C21.0938 40.1852 16.3617 35.4531 10.5469 35.4531Z" fill="black"/>
<path d="M10.5469 70.6094C4.72969 70.6094 0 75.3414 0 81.1562C0 86.9734 4.72969 91.7031 10.5469 91.7031C16.3617 91.7031 21.0938 86.9734 21.0938 81.1562C21.0938 75.3414 16.3617 70.6094 10.5469 70.6094Z" fill="black"/>
</svg>
