<svg width="29" height="28" viewBox="0 0 29 28" fill="none" xmlns="http://www.w3.org/2000/svg">
<path d="M14.4961 9.33135C11.8336 9.33135 9.6608 11.4293 9.6608 14C9.6608 16.5707 11.8336 18.6687 14.4961 18.6687C17.1586 18.6687 19.3314 16.5707 19.3314 14C19.3314 11.4293 17.1586 9.33135 14.4961 9.33135ZM28.9984 14C28.9984 12.0667 29.0165 10.1509 28.9041 8.2211C28.7916 5.97958 28.262 3.99024 26.5644 2.35113C24.8632 0.708519 22.8064 0.200677 20.4849 0.0921032C18.4826 -0.0164701 16.4984 0.00104176 14.4997 0.00104176C12.4974 0.00104176 10.5132 -0.0164701 8.51455 0.0921032C6.19302 0.200677 4.13267 0.712022 2.43505 2.35113C0.73381 3.99374 0.20784 5.97958 0.0953909 8.2211C-0.017058 10.1544 0.00107894 12.0702 0.00107894 14C0.00107894 15.9298 -0.017058 17.8491 0.0953909 19.7789C0.20784 22.0204 0.737438 24.0098 2.43505 25.6489C4.1363 27.2915 6.19302 27.7993 8.51455 27.9079C10.5169 28.0165 12.501 27.999 14.4997 27.999C16.502 27.999 18.4862 28.0165 20.4849 27.9079C22.8064 27.7993 24.8668 27.288 26.5644 25.6489C28.2657 24.0063 28.7916 22.0204 28.9041 19.7789C29.0201 17.8491 28.9984 15.9333 28.9984 14ZM14.4961 21.1834C10.379 21.1834 7.05634 17.9752 7.05634 14C7.05634 10.0248 10.379 6.81665 14.4961 6.81665C18.6132 6.81665 21.9359 10.0248 21.9359 14C21.9359 17.9752 18.6132 21.1834 14.4961 21.1834ZM22.2406 8.20008C21.2793 8.20008 20.503 7.45057 20.503 6.52245C20.503 5.59432 21.2793 4.84481 22.2406 4.84481C23.2018 4.84481 23.9781 5.59432 23.9781 6.52245C23.9784 6.74284 23.9336 6.96111 23.8464 7.16478C23.7592 7.36844 23.6312 7.55349 23.4698 7.70933C23.3084 7.86517 23.1168 7.98873 22.9058 8.07294C22.6949 8.15715 22.4688 8.20036 22.2406 8.20008Z" fill="#2D2D2D"/>
</svg>
