<svg width="846" height="619" viewBox="0 0 846 619" fill="none" xmlns="http://www.w3.org/2000/svg">
<g opacity="0.2" filter="url(#filter0_f)">
<path d="M720.753 517.5L555.253 424L392.753 588.5L599.753 490.5L720.753 517.5Z" fill="url(#paint0_linear)"/>
</g>
<g filter="url(#filter1_d)">
<path d="M534.284 131.5V356.5L707.533 456.539V231.5L534.284 131.5Z" fill="url(#paint1_linear)"/>
</g>
<g opacity="0.15" filter="url(#filter2_f)">
<path d="M534.753 163L635.753 219.224V345L534.753 290.776V163Z" fill="url(#paint2_linear)"/>
</g>
<path d="M534.284 131.502L555.942 118.998L729.19 219.022L707.533 231.527L534.284 131.502Z" fill="url(#paint3_linear)"/>
<path d="M707.532 456.614L729.19 444.109V219.022L707.532 231.527V456.614Z" fill="url(#paint4_linear)"/>
<path d="M707.532 381.499L577.141 306.198V381.313L707.532 456.614V381.499Z" fill="url(#paint5_linear)"/>
<path d="M729.19 444.109L707.532 456.614V381.256L729.19 368.751V444.109Z" fill="url(#paint6_linear)"/>
<path d="M707.532 381.585L577.6 306.384V331.394L707.532 406.595V381.585Z" fill="url(#paint7_linear)"/>
<path d="M707.532 407.211L707.275 407.053L577.6 332.182V330.95L707.532 405.979L729.19 393.474V394.706L707.532 407.211Z" fill="#8C6239"/>
<path d="M707.532 381.499L707.275 381.341L577.6 306.47V305.224L707.532 380.253L729.19 367.748V368.994L707.532 381.499Z" fill="#8C6239"/>
<path d="M707.532 432.22L707.275 432.062L577.6 357.191V355.959L707.532 430.988L729.19 418.483V419.715L707.532 432.22Z" fill="#8C6239"/>
<path d="M403.95 569.788L230.687 469.749V444.754L317.319 494.759V444.754L230.687 394.735V269.686L403.95 369.725V569.788Z" fill="#EFEFEF"/>
<path d="M230.687 444.754L240.069 439.325L317.319 483.815V494.759L230.687 444.754Z" fill="#BEBBD1"/>
<path d="M230.687 269.687L252.345 257.182L338.976 307.201L468.909 232.172L382.292 182.153L403.95 169.648L577.198 269.687L403.95 369.725L230.687 269.687Z" fill="#EBE5ED"/>
<path d="M577.199 269.686V469.749L403.95 569.788V369.725L577.199 269.686Z" fill="#D9D8E0"/>
<path opacity="0.52" d="M240.069 439.325V400.149L317.318 444.754V483.815L240.069 439.325Z" fill="url(#paint8_linear)"/>
<path d="M382.292 182.153V194.658L458.41 238.245L468.909 232.172L382.292 182.153Z" fill="#D3C6D8"/>
<path opacity="0.15" d="M267.328 265.819L386.776 197.236L458.41 238.245L338.976 307.201L267.328 265.819Z" fill="url(#paint9_linear)"/>
<path opacity="0.37" d="M458.41 238.246L393.15 275.918V200.889" fill="url(#paint10_linear)"/>
<path opacity="0.15" d="M393.15 200.888V275.903L338.976 307.186L267.328 265.804L386.776 197.236L393.15 200.888Z" fill="url(#paint11_linear)"/>
<path opacity="0.12" d="M393.15 275.917V275.903L338.976 307.186L279.346 272.752L267.328 265.804L386.776 197.236L458.41 238.245L393.15 275.917Z" fill="url(#paint12_linear)"/>
<path opacity="0.23" d="M452.136 241.883L387.52 203.982L273.186 269.185L267.328 265.804L386.776 197.236L458.41 238.245L452.136 241.883Z" fill="url(#paint13_linear)"/>
<path opacity="0.25" d="M245.641 403.587L245.527 435.286L317.318 476.911V483.815L240.069 439.325V400.149L245.641 403.587Z" fill="url(#paint14_linear)"/>
<path opacity="0.15" d="M119.892 144.939L119.906 264.415L230.688 200.458L228.926 80.5237L119.892 144.939Z" fill="url(#paint15_linear)"/>
<path opacity="0.15" d="M305.545 124.77L195.25 188.455L112.529 140.684L222.824 77L305.545 124.77Z" fill="url(#paint16_linear)"/>
<path opacity="0.2" d="M195.25 188.455L305.545 124.771V132.219L195.25 195.903V188.455Z" fill="url(#paint17_linear)"/>
<path opacity="0.35" d="M119.906 264.415L112.529 260.103V140.684L119.892 144.939V153.963L119.906 264.415Z" fill="url(#paint18_linear)"/>
<path opacity="0.31" d="M195.25 188.455V195.903L119.892 152.874V144.939L195.25 188.455Z" fill="url(#paint19_linear)"/>
<path opacity="0.44" d="M112.529 140.684L119.892 144.939L228.926 80.5237L222.824 77L112.529 140.684Z" fill="url(#paint20_linear)"/>
<path opacity="0.15" d="M0 364.01L93.2347 416.879V464.22L0 411.179V364.01Z" fill="url(#paint21_linear)"/>
<path opacity="0.44" d="M5.07056 366.888L11.0436 363.465L100.01 414.53V460.753L93.2346 464.22V416.879L5.07056 366.888Z" fill="url(#paint22_linear)"/>
<path opacity="0.15" d="M119.906 300.97V347.58L5.35705 414.229L5.07056 366.889L119.906 300.97Z" fill="url(#paint23_linear)"/>
<path opacity="0.44" d="M0 364.009L112.443 300.253L119.906 300.97L5.07065 366.889L0 364.009Z" fill="url(#paint24_linear)"/>
<defs>
<filter id="filter0_f" x="362.753" y="394" width="388" height="224.5" filterUnits="userSpaceOnUse" color-interpolation-filters="sRGB">
<feFlood flood-opacity="0" result="BackgroundImageFix"/>
<feBlend mode="normal" in="SourceGraphic" in2="BackgroundImageFix" result="shape"/>
<feGaussianBlur stdDeviation="15" result="effect1_foregroundBlur"/>
</filter>
<filter id="filter1_d" x="522.284" y="0.5" width="323.248" height="475.039" filterUnits="userSpaceOnUse" color-interpolation-filters="sRGB">
<feFlood flood-opacity="0" result="BackgroundImageFix"/>
<feColorMatrix in="SourceAlpha" type="matrix" values="0 0 0 0 0 0 0 0 0 0 0 0 0 0 0 0 0 0 127 0"/>
<feOffset dx="63" dy="-56"/>
<feGaussianBlur stdDeviation="37.5"/>
<feColorMatrix type="matrix" values="0 0 0 0 0.00427082 0 0 0 0 0.0784979 0 0 0 0 0.341667 0 0 0 0.18 0"/>
<feBlend mode="normal" in2="BackgroundImageFix" result="effect1_dropShadow"/>
<feBlend mode="normal" in="SourceGraphic" in2="effect1_dropShadow" result="shape"/>
</filter>
<filter id="filter2_f" x="504.753" y="133" width="161" height="242" filterUnits="userSpaceOnUse" color-interpolation-filters="sRGB">
<feFlood flood-opacity="0" result="BackgroundImageFix"/>
<feBlend mode="normal" in="SourceGraphic" in2="BackgroundImageFix" result="shape"/>
<feGaussianBlur stdDeviation="15" result="effect1_foregroundBlur"/>
</filter>
<linearGradient id="paint0_linear" x1="613.253" y1="446.5" x2="392.753" y2="588.5" gradientUnits="userSpaceOnUse">
<stop stop-color="#232323"/>
<stop offset="1" stop-color="#6D6D6D"/>
</linearGradient>
<linearGradient id="paint1_linear" x1="620.912" y1="186.7" x2="620.912" y2="336.464" gradientUnits="userSpaceOnUse">
<stop stop-color="#FAEDF4"/>
<stop offset="0.2996" stop-color="#F5EAF0"/>
<stop offset="0.6421" stop-color="#E7E0E4"/>
<stop offset="1" stop-color="#D1D1D1"/>
</linearGradient>
<linearGradient id="paint2_linear" x1="602.651" y1="187.894" x2="509.584" y2="204.574" gradientUnits="userSpaceOnUse">
<stop stop-color="#232323"/>
<stop offset="1" stop-color="#6D6D6D"/>
</linearGradient>
<linearGradient id="paint3_linear" x1="637.299" y1="165.404" x2="626.195" y2="185.095" gradientUnits="userSpaceOnUse">
<stop stop-color="#EBE5ED"/>
<stop offset="0.3996" stop-color="#E2DFE4"/>
<stop offset="0.7814" stop-color="#D6D6D6"/>
<stop offset="1" stop-color="#D1D1D1"/>
</linearGradient>
<linearGradient id="paint4_linear" x1="729.194" y1="337.819" x2="707.538" y2="337.819" gradientUnits="userSpaceOnUse">
<stop stop-color="#EBE5ED"/>
<stop offset="0.5501" stop-color="#E3E1E4"/>
<stop offset="0.7814" stop-color="#DEDEDE"/>
<stop offset="1" stop-color="#E0E0E0"/>
</linearGradient>
<linearGradient id="paint5_linear" x1="577.141" y1="381.406" x2="707.538" y2="381.406" gradientUnits="userSpaceOnUse">
<stop stop-color="#D3A755" stop-opacity="0.8"/>
<stop offset="0.3978" stop-color="#D39E54" stop-opacity="0.9567"/>
<stop offset="0.5076" stop-color="#D39A53"/>
<stop offset="1" stop-color="#A67640"/>
</linearGradient>
<linearGradient id="paint6_linear" x1="707.538" y1="412.679" x2="729.194" y2="412.679" gradientUnits="userSpaceOnUse">
<stop stop-color="#D3A755" stop-opacity="0.8"/>
<stop offset="0.3978" stop-color="#D39E54" stop-opacity="0.9567"/>
<stop offset="0.5076" stop-color="#D39A53"/>
<stop offset="1" stop-color="#B98349"/>
</linearGradient>
<linearGradient id="paint7_linear" x1="577.599" y1="356.488" x2="707.538" y2="356.488" gradientUnits="userSpaceOnUse">
<stop stop-color="#BC964B" stop-opacity="0.8"/>
<stop offset="0.5076" stop-color="#C38E4C"/>
<stop offset="1" stop-color="#A0723D"/>
</linearGradient>
<linearGradient id="paint8_linear" x1="240.39" y1="419.808" x2="318.25" y2="464.993" gradientUnits="userSpaceOnUse">
<stop stop-color="#13176D"/>
<stop offset="0.3743" stop-color="#0000A2"/>
<stop offset="0.4758" stop-color="#0005A6"/>
<stop offset="0.597" stop-color="#0014B2"/>
<stop offset="0.7284" stop-color="#002CC5"/>
<stop offset="0.8658" stop-color="#004DDF"/>
<stop offset="1" stop-color="#0075FF"/>
</linearGradient>
<linearGradient id="paint9_linear" x1="267.33" y1="252.218" x2="458.405" y2="252.218" gradientUnits="userSpaceOnUse">
<stop stop-color="#0000FF"/>
<stop offset="1" stop-color="#0000A2"/>
</linearGradient>
<linearGradient id="paint10_linear" x1="425.78" y1="275.914" x2="425.78" y2="200.887" gradientUnits="userSpaceOnUse">
<stop stop-color="#0000FF"/>
<stop offset="0.165" stop-color="#0806D3"/>
<stop offset="0.3441" stop-color="#0F0BAC"/>
<stop offset="0.5208" stop-color="#140F8C"/>
<stop offset="0.6917" stop-color="#181276"/>
<stop offset="0.8544" stop-color="#1A1369"/>
<stop offset="1" stop-color="#1B1464"/>
</linearGradient>
<linearGradient id="paint11_linear" x1="267.33" y1="252.218" x2="393.151" y2="252.218" gradientUnits="userSpaceOnUse">
<stop stop-color="#0000FF"/>
<stop offset="1" stop-color="#0000A2"/>
</linearGradient>
<linearGradient id="paint12_linear" x1="267.328" y1="252.211" x2="458.41" y2="252.211" gradientUnits="userSpaceOnUse">
<stop stop-color="#0000FF"/>
<stop offset="1" stop-color="#0000A2"/>
</linearGradient>
<linearGradient id="paint13_linear" x1="458.41" y1="233.213" x2="267.328" y2="233.213" gradientUnits="userSpaceOnUse">
<stop stop-color="#0000FF"/>
<stop offset="0.5587" stop-color="#0000A2"/>
<stop offset="1" stop-color="#F2F2F2"/>
</linearGradient>
<linearGradient id="paint14_linear" x1="299.444" y1="494.103" x2="243.899" y2="397.902" gradientUnits="userSpaceOnUse">
<stop stop-color="#0000FF"/>
<stop offset="0.5587" stop-color="#0000A2"/>
<stop offset="1" stop-color="#F2F2F2"/>
</linearGradient>
<linearGradient id="paint15_linear" x1="119.896" y1="172.476" x2="230.692" y2="172.476" gradientUnits="userSpaceOnUse">
<stop stop-color="#0000FF"/>
<stop offset="1" stop-color="#0000A2"/>
</linearGradient>
<linearGradient id="paint16_linear" x1="112.532" y1="132.729" x2="305.547" y2="132.729" gradientUnits="userSpaceOnUse">
<stop stop-color="#0000FF"/>
<stop offset="1" stop-color="#0000A2"/>
</linearGradient>
<linearGradient id="paint17_linear" x1="195.251" y1="160.336" x2="305.547" y2="160.336" gradientUnits="userSpaceOnUse">
<stop stop-color="#0000FF"/>
<stop offset="0.4916" stop-color="#0000A2"/>
<stop offset="1" stop-color="#1E6BD7"/>
</linearGradient>
<linearGradient id="paint18_linear" x1="116.217" y1="140.689" x2="116.217" y2="264.415" gradientUnits="userSpaceOnUse">
<stop stop-color="#0000FF"/>
<stop offset="0.4916" stop-color="#0000A2"/>
<stop offset="1" stop-color="#1E6BD7"/>
</linearGradient>
<linearGradient id="paint19_linear" x1="119.896" y1="170.422" x2="195.25" y2="170.422" gradientUnits="userSpaceOnUse">
<stop stop-color="#0000FF"/>
<stop offset="0.4916" stop-color="#0000A2"/>
<stop offset="1" stop-color="#1E6BD7"/>
</linearGradient>
<linearGradient id="paint20_linear" x1="228.931" y1="110.973" x2="112.532" y2="110.973" gradientUnits="userSpaceOnUse">
<stop stop-color="#0000FF"/>
<stop offset="0.5587" stop-color="#0000A2"/>
<stop offset="1" stop-color="#F2F2F2"/>
</linearGradient>
<linearGradient id="paint21_linear" x1="0.00128916" y1="414.115" x2="93.2279" y2="414.115" gradientUnits="userSpaceOnUse">
<stop stop-color="#0000FF"/>
<stop offset="1" stop-color="#0000A2"/>
</linearGradient>
<linearGradient id="paint22_linear" x1="100.005" y1="413.842" x2="5.07729" y2="413.842" gradientUnits="userSpaceOnUse">
<stop stop-color="#0000FF"/>
<stop offset="0.5587" stop-color="#0000A2"/>
<stop offset="1" stop-color="#F2F2F2"/>
</linearGradient>
<linearGradient id="paint23_linear" x1="5.07729" y1="357.6" x2="119.906" y2="357.6" gradientUnits="userSpaceOnUse">
<stop stop-color="#0000FF"/>
<stop offset="1" stop-color="#0000A2"/>
</linearGradient>
<linearGradient id="paint24_linear" x1="119.906" y1="333.573" x2="0.00128644" y2="333.573" gradientUnits="userSpaceOnUse">
<stop stop-color="#0000FF"/>
<stop offset="0.5587" stop-color="#0000A2"/>
<stop offset="1" stop-color="#F2F2F2"/>
</linearGradient>
</defs>
</svg>
