<svg width="16" height="20" viewBox="0 0 16 20" fill="none" xmlns="http://www.w3.org/2000/svg">
<path fill-rule="evenodd" clip-rule="evenodd" d="M3.98534 3.3368C3.79945 3.3368 3.62118 3.41182 3.48974 3.54536C3.3583 3.6789 3.28445 3.86001 3.28445 4.04886C3.28445 4.97029 2.5492 5.71726 1.64223 5.71726C0.73525 5.71726 0 4.97029 0 4.04886C0 2.97503 0.419882 1.94519 1.16728 1.18588C1.91467 0.426575 2.92836 0 3.98534 0C5.04231 0 6.056 0.426575 6.80339 1.18588C7.55079 1.94519 7.97067 2.97503 7.97067 4.04886V7H10.4077C11.2871 7 12 7.67157 12 8.5C12 9.32843 11.2871 10 10.4077 10H7.97067V14.7609C7.97067 15.2654 8.16795 15.7493 8.5191 16.106C8.87024 16.4628 9.34651 16.6632 9.84311 16.6632C10.27 16.6632 10.6819 16.5151 11.0121 16.2469C10.3913 15.6973 10 14.8943 10 14C10 12.3431 11.3431 11 13 11C14.6569 11 16 12.3431 16 14C16 15.0159 15.495 15.9139 14.7224 16.4566C14.4701 17.206 14.0513 17.8948 13.4896 18.4655C12.5225 19.448 11.2108 20 9.84311 20C8.47542 20 7.16374 19.448 6.19664 18.4655C5.22953 17.483 4.68622 16.1504 4.68622 14.7609V10H3.59226C2.71288 10 2 9.32843 2 8.5C2 7.67157 2.71288 7 3.59226 7H4.68622V4.04886C4.68622 3.86001 4.61238 3.6789 4.48093 3.54536C4.34949 3.41182 4.17122 3.3368 3.98534 3.3368Z" fill="white"/>
</svg>
