<svg width="70" height="56" viewBox="0 0 70 56" fill="none" xmlns="http://www.w3.org/2000/svg">
<g filter="url(#filter0_d)">
<path d="M60 35.29C59.9917 36.6855 59.685 38.0636 59.1001 39.3339C58.4869 40.7079 57.4862 41.8784 56.2176 42.7058C54.949 43.5333 53.466 43.9825 51.9458 44L14.0595 44C12.5393 43.9825 11.0563 43.5333 9.78767 42.7058C8.51904 41.8784 7.51837 40.7079 6.90517 39.3339C6.14909 37.7531 5.85789 35.9942 6.06473 34.2579C6.27157 32.5215 6.96813 30.8774 8.07505 29.513L27.0182 6.84931C27.7346 5.96057 28.6447 5.24283 29.6809 4.74951C30.717 4.2562 31.8524 4 33.0026 4C34.1529 4 35.2883 4.2562 36.3244 4.74951C37.3605 5.24283 38.2706 5.96057 38.987 6.84931L57.9302 29.513C59.2716 31.1467 60.0025 33.1867 60 35.29Z" fill="url(#paint0_linear)"/>
</g>
<defs>
<filter id="filter0_d" x="0" y="0" width="70" height="56" filterUnits="userSpaceOnUse" color-interpolation-filters="sRGB">
<feFlood flood-opacity="0" result="BackgroundImageFix"/>
<feColorMatrix in="SourceAlpha" type="matrix" values="0 0 0 0 0 0 0 0 0 0 0 0 0 0 0 0 0 0 127 0"/>
<feOffset dx="2" dy="4"/>
<feGaussianBlur stdDeviation="4"/>
<feColorMatrix type="matrix" values="0 0 0 0 0.0021354 0 0 0 0 0.0837938 0 0 0 0 0.5125 0 0 0 0.25 0"/>
<feBlend mode="normal" in2="BackgroundImageFix" result="effect1_dropShadow"/>
<feBlend mode="normal" in="SourceGraphic" in2="effect1_dropShadow" result="shape"/>
</filter>
<linearGradient id="paint0_linear" x1="6" y1="24" x2="58.6803" y2="15.662" gradientUnits="userSpaceOnUse">
<stop stop-color="#55C2FF"/>
<stop offset="1" stop-color="#4075FF"/>
</linearGradient>
</defs>
</svg>
