<svg width="31" height="21" viewBox="0 0 31 21" fill="none" xmlns="http://www.w3.org/2000/svg">
<path d="M18.1365 21H25.7728C26.7164 21 27.5182 20.7872 28.184 20.4163L18.1365 14.4227V21Z" fill="#2E3192"/>
<path d="M30.3832 17.282C30.4921 16.7967 30.5474 16.2826 30.5474 15.7495V13.3632H23.8131L30.3813 17.282" fill="#2E3192"/>
<path d="M0.167102 3.70312C0.0539902 4.21091 -0.00203909 4.72974 5.66801e-05 5.24996V7.63633H6.76014L0.167102 3.70312Z" fill="#2E3192"/>
<path d="M12.4091 0H4.77273C3.83584 0 3.03927 0.21 2.37634 0.575591L12.4091 6.56059V0Z" fill="#2E3192"/>
<path d="M2.40698 20.4397C3.06371 20.7948 3.84978 21 4.77282 21H12.4092V14.4728L2.40698 20.4397Z" fill="#2E3192"/>
<path d="M0.00012207 13.3636V15.75C0.00012207 16.2993 0.0583493 16.8286 0.173372 17.3264L6.81652 13.3636H0.00012207Z" fill="#2E3192"/>
<path d="M28.2141 0.598977C27.543 0.218113 26.7302 0 25.7728 0H18.1365V6.6107L28.2141 0.598977Z" fill="#2E3192"/>
<path d="M30.5455 7.63638V5.25002C30.5455 4.72789 30.4915 4.22436 30.387 3.74805L23.8694 7.63638H30.5455Z" fill="#2E3192"/>
<path d="M23.8694 7.63636L30.3871 3.74802C30.0883 2.38111 29.3609 1.2495 28.214 0.598977L18.1364 6.6107V0H17.1819V8.5909H30.5455V7.63636H23.8694Z" fill="#E6E7E8"/>
<path d="M0.00012207 12.4091V13.3636H6.81652L0.173372 17.3264C0.488849 18.689 1.23817 19.8077 2.40701 20.4396L12.4092 14.4728V21H13.3637V12.4091H0.00012207Z" fill="#E6E7E8"/>
<path d="M30.5455 12.4091H17.1819V21H18.1364V14.4227L28.184 20.4167C29.3394 19.7734 30.0759 18.648 30.3813 17.283L23.8131 13.3636H30.5455V12.4091Z" fill="#E6E7E8"/>
<path d="M12.4092 0V6.56059L2.37646 0.575591C1.21669 1.21514 0.475485 2.33863 0.16669 3.70316L6.76021 7.63636H0.00012207V8.5909H13.3637V0H12.4092Z" fill="#E6E7E8"/>
<path d="M17.1819 8.5909V0H13.3637V8.5909H0.00012207V12.4091H13.3637V21H17.1819V12.4091H30.5455V8.5909H17.1819Z" fill="#BE1E2D"/>
<path d="M10.4704 7.63636L0.901139 1.92389C0.695435 2.22934 0.530299 2.56534 0.393799 2.9233L8.29122 7.63636H10.469" fill="#BE1E2D"/>
<path d="M30.1112 18.1793L22.0868 13.3636H19.8646L29.5595 19.1954C29.7843 18.8813 29.9696 18.5407 30.1112 18.1812" fill="#BE1E2D"/>
<path d="M28.9795 1.14117L18.1216 7.63637L20.3261 7.63781L29.6954 2.02842C29.4864 1.64804 29.2659 1.40272 28.9795 1.14117Z" fill="#BE1E2D"/>
<path d="M0.865356 19.0313C1.08005 19.3582 1.33842 19.6543 1.63329 19.9113L12.4392 13.3636H10.2614L0.865356 19.0313Z" fill="#BE1E2D"/>
</svg>
